<svg xmlns="http://www.w3.org/2000/svg" xmlns:xlink="http://www.w3.org/1999/xlink" viewBox="0 0 229.16 432.27"><defs><style>.cls-1{fill:url(#linear-gradient);}.cls-2{fill:url(#linear-gradient-2);}.cls-3{fill:url(#linear-gradient-3);}.cls-4{fill:url(#linear-gradient-4);}</style><linearGradient id="linear-gradient" x1="117.24" y1="90.28" x2="114.61" y2="314.75" gradientUnits="userSpaceOnUse"><stop offset="0" stop-color="#29abe2"/><stop offset="0.2" stop-color="#2ca9e0"/><stop offset="0.34" stop-color="#35a2db"/><stop offset="0.47" stop-color="#4597d3"/><stop offset="0.59" stop-color="#5c86c7"/><stop offset="0.71" stop-color="#7971b7"/><stop offset="0.82" stop-color="#9d57a4"/><stop offset="0.92" stop-color="#c7398d"/><stop offset="1" stop-color="#ed1e79"/></linearGradient><linearGradient id="linear-gradient-2" x1="121.7" y1="90.33" x2="119.08" y2="314.8" xlink:href="#linear-gradient"/><linearGradient id="linear-gradient-3" x1="133.91" y1="90.47" x2="131.29" y2="314.94" xlink:href="#linear-gradient"/><linearGradient id="linear-gradient-4" x1="112.77" y1="90.22" x2="110.15" y2="314.7" xlink:href="#linear-gradient"/></defs><title>logoColored</title><g id="Layer_2" data-name="Layer 2"><g id="Layer_4" data-name="Layer 4"><path class="cls-1" d="M91.94,330.47c-5.89,4.75-9.82,11.85-12.45,19.27-5.42,15.39-5.2,32.15-5.2,32.15l-16.8-16.46c-.06,0-48.32-48.09-48.32-48.09S.51,307.06.25,290.11c-.18-11.29,3.38-25.54,15.68-41.71-.56,1.09-12.31,24.27-4.65,32.87l63.57,63.8c2.8-14.3,9.66-20.65,10.38-21.28L51.32,290c-9.62-11.15-20.78-29.56-6.26-43.93a2.61,2.61,0,0,1,.24-.23c.48-.47,1-.93,1.52-1.38a58,58,0,0,0,6.13,9c.7.87,1.46,1.81,2.31,2.79l67.92,67.91a2.39,2.39,0,0,1,.26-.21c4.26-3.28,8.23-6.53,11.91-9.71,15.52-13.44,53.2-41.84,42.6-91l28.86,29.61c3.75,3.53,48.45,54.5.73,89.95,0,0-25.38,18.06-46.36,1.36-10-8-4.09-27.27,1.36-28.63-3.59,7.17,5.93,28.08,33,7.18a21.51,21.51,0,0,0,8.11-12.53c1.81-8.8-.31-19.53-5.42-25.79-6.65-8.15-11.65-13.48-11.65-13.48a5.79,5.79,0,0,0-9.35,1.22c-7.34,13.56-19.9,28.6-39.34,44.71l-12.4,9.71,22,22s.25.22.65.66c2,2.08,13.61,19,5.6,42.84a71.15,71.15,0,0,1-11.31,20.65A120,120,0,0,1,123,432.52S86.7,400.37,93.57,363.85c1.23-6.46,3.77-15.93,9.85-22ZM137,407.31c7.78-12.87,3.41-25.35-1.21-33.16l-3.8-3.81-25.57-25.43A25.87,25.87,0,0,0,104.73,375Z" transform="translate(-0.25 -0.25)"/><path class="cls-2" d="M162.05,31.61l-2.29.86C140.36.09,79.71-5.72,88.32,44.89c-.47-1-19.53-32.85,15.89-43.34,10.89-3.23,23.44-.3,35.15,7.22C146.39,13.29,155.78,21.07,162.05,31.61Z" transform="translate(-0.25 -0.25)"/><path class="cls-3" d="M114.78,196.68l-.29.35c-6.82,4.05-11.75,20.47-11.75,20.47-.37-8.39,2.58-17.6,6.39-25.83a136.33,136.33,0,0,1,14.4-23.76l.42-.54a124.37,124.37,0,0,1,18.54,19.5c7.24,9.4,14.57,21.69,17.77,35.63a61.21,61.21,0,0,1-6.61,45l-2.73-.67C157.29,254.31,156.51,231.81,114.78,196.68Z" transform="translate(-0.25 -0.25)"/><path class="cls-4" d="M138.66,279.45a30.6,30.6,0,0,0,12.26-12.6l2.73.67q-1.28,2.25-2.76,4.52c-6.28,9.59-15.63,19.31-28.91,28.9l-46.24-46.8s-11.65-12.68-15.85-23.68c-9.21-24.25-8.22-64.9,59.24-112.27C167.79,84,172,52.94,159.76,32.47l2.29-.86c12.69,21.36,12.54,54-46.13,93.8-.4.28-.76.57-1.17.84-8.11,5.43-71.43,47.68-17.31,112Z" transform="translate(-0.25 -0.25)"/></g></g></svg>