<?xml version="1.0" standalone="no"?>
<!DOCTYPE svg PUBLIC "-//W3C//DTD SVG 20010904//EN"
 "http://www.w3.org/TR/2001/REC-SVG-20010904/DTD/svg10.dtd">
<svg version="1.0" xmlns="http://www.w3.org/2000/svg"
 width="1366.000000pt" height="768.000000pt" viewBox="0 0 1366.000000 768.000000"
 preserveAspectRatio="xMidYMid meet">

<g transform="translate(0.000000,768.000000) scale(0.100000,-0.100000)"
fill="#000000" stroke="none">
<path d="M6673 6172 c-60 -21 -112 -59 -149 -107 -47 -63 -48 -180 -1 -288
l23 -50 -1 94 c0 81 4 102 26 150 72 153 270 184 483 77 69 -35 165 -122 200
-182 99 -169 67 -368 -92 -567 -77 -98 -146 -159 -332 -298 -172 -128 -341
-286 -424 -395 -215 -282 -248 -584 -90 -828 41 -65 545 -598 565 -598 4 0 45
31 91 70 317 265 394 579 223 909 -25 47 -69 118 -97 156 -56 75 -181 205
-197 205 -11 0 -98 -134 -139 -216 -38 -76 -69 -172 -77 -244 -8 -67 2 -59 39
33 16 37 41 81 57 98 l29 31 68 -63 c211 -197 313 -361 313 -507 0 -39 -6 -83
-16 -106 -17 -41 -100 -136 -119 -136 -14 0 -421 409 -463 465 -100 133 -153
269 -161 408 -6 116 7 183 53 282 61 133 166 248 326 360 374 260 542 483 541
718 -2 203 -144 398 -368 504 -69 33 -89 38 -169 40 -68 3 -102 -1 -142 -15z"/>
<path d="M7445 3918 c11 -82 6 -231 -10 -290 -53 -204 -167 -360 -418 -570
l-120 -100 -344 343 c-189 189 -360 367 -380 394 -20 28 -39 52 -41 55 -2 3
-19 -12 -36 -32 -77 -89 -72 -216 14 -345 18 -26 116 -132 217 -234 165 -166
183 -187 168 -199 -19 -16 -57 -88 -75 -144 l-12 -39 -319 319 c-238 238 -322
328 -329 353 -14 50 4 134 55 256 l16 40 -25 -30 c-37 -43 -113 -200 -131
-270 -30 -117 -13 -255 42 -356 17 -32 137 -159 357 -376 l331 -328 7 85 c15
164 69 323 136 400 l30 35 55 -54 55 -53 -24 -35 c-33 -49 -62 -132 -75 -213
-12 -77 -2 -172 27 -257 40 -119 136 -272 226 -360 l54 -53 83 83 c173 170
251 324 251 492 0 150 -37 224 -188 377 -64 65 -114 119 -111 121 2 1 47 37
100 80 132 105 285 267 358 378 67 101 77 111 109 103 27 -8 147 -151 171
-206 28 -62 36 -137 21 -199 -31 -126 -239 -246 -338 -195 -43 22 -65 58 -65
106 0 48 -8 50 -37 11 -30 -43 -45 -127 -31 -178 16 -58 43 -87 113 -122 52
-27 72 -31 138 -31 137 0 234 42 341 149 133 133 175 274 134 449 -42 177
-124 303 -342 521 l-165 166 7 -47z m-568 -1330 c153 -154 180 -195 190 -292
6 -54 -19 -166 -36 -166 -15 0 -325 328 -338 358 -19 43 -16 151 7 200 10 23
23 42 27 42 5 0 72 -64 150 -142z"/>
</g>
</svg>
